<?xml version="1.0" encoding="utf-8"?>
<!-- Generator: Adobe Illustrator 24.1.2, SVG Export Plug-In . SVG Version: 6.00 Build 0)  -->
<svg version="1.1" id="Layer_1" xmlns="http://www.w3.org/2000/svg" xmlns:xlink="http://www.w3.org/1999/xlink" x="0px" y="0px"
	 viewBox="0 0 255 255" style="enable-background:new 0 0 255 255;" xml:space="preserve">
<style type="text/css">
	.st0{fill:#D65858;}
</style>
<g>
	<path class="st0" d="M-2.18,147.92V115.4l97.16-50.47v39.26L61.63,118.2l-27.99,12.9v1.12l27.99,12.9l33.35,14.02v39.26
		L-2.18,147.92z"/>
</g>
<g>
	<path class="st0" d="M122.65,195.29L144.52,165c10.94,10.1,23.84,16.83,36.45,16.83c15.7,0,25.8-5.61,25.8-16.83
		c0-13.46-7.01-21.31-44.31-21.31v-33.65c29.72,0,38.7-7.85,38.7-20.19c0-10.66-6.45-16.26-18.51-16.26
		c-11.78,0-20.19,5.05-31.41,14.58l-24.12-29.16c17.39-14.58,35.89-22.99,57.76-22.99c39.26,0,64.49,17.95,64.49,50.19
		c0,17.11-9.53,30-28.6,38.42v1.12c20.19,6.17,34.21,20.19,34.21,42.62c0,33.65-31.97,52.16-68.98,52.16
		C157.14,220.53,136.11,210.99,122.65,195.29z"/>
</g>
<g>
	<path d="M105.39,96.32h21.67c12.76,0,23.22,4.43,23.22,18.74c0,13.83-10.46,19.78-23.22,19.78h-8.07v21.66h-13.6V96.32z
		 M125.95,124.03c7.16,0,11-3.06,11-8.98c0-5.95-3.84-7.94-11-7.94h-6.96v16.92H125.95z M124.57,131.25l9.41-8.7l19.2,33.95h-15.22
		L124.57,131.25z"/>
</g>
</svg>
