<?xml version="1.0" encoding="utf-8"?>
<!-- Generator: Adobe Illustrator 24.1.2, SVG Export Plug-In . SVG Version: 6.00 Build 0)  -->
<svg version="1.1" id="Layer_1" xmlns="http://www.w3.org/2000/svg" xmlns:xlink="http://www.w3.org/1999/xlink" x="0px" y="0px"
	 viewBox="0 0 255 255" style="enable-background:new 0 0 255 255;" xml:space="preserve">
<g>
	<path d="M124.8,204.3c8,5.6,26.7,14.3,46.3,14.3c36.4,0,47.6-25.1,47.3-43.9c-0.3-31.7-26.7-45.3-54.1-45.3h-15.8v-23h15.8
		c20.6,0,46.7-11.5,46.7-38.3C211,50,200.4,34,174.4,34c-16.7,0-32.8,8-41.8,15l-7.4-22.3c10.9-8.7,32.2-17.4,54.7-17.4
		c41.2,0,59.9,26.5,59.9,54c0,23.3-12.9,43.2-38.6,53.3v0.7c25.7,5.6,46.7,26.5,46.7,58.2c0,36.2-26.1,67.9-76.3,67.9
		c-23.5,0-44.1-8-54.4-15.3L124.8,204.3z"/>
</g>
<g>
	<path d="M7.1,121.9l96.2-73.1v26.9l-72.9,54.1v0.6l72.9,54.1v26.9L7.1,138.4V121.9z"/>
</g>
<g>
	<path d="M96.2,99.1h20.5c12.1,0,21.9,4.2,21.9,17.7c0,13.1-9.9,18.7-21.9,18.7h-7.6v20.5H96.2V99.1z M115.6,125.3
		c6.8,0,10.4-2.9,10.4-8.5c0-5.6-3.6-7.5-10.4-7.5h-6.6v16H115.6z M114.3,132.1l8.9-8.2l18.1,32.1H127L114.3,132.1z"/>
</g>
</svg>
