<?xml version="1.0" encoding="utf-8"?>
<!-- Generator: Adobe Illustrator 24.1.2, SVG Export Plug-In . SVG Version: 6.00 Build 0)  -->
<svg version="1.1" id="Layer_1" xmlns="http://www.w3.org/2000/svg" xmlns:xlink="http://www.w3.org/1999/xlink" x="0px" y="0px"
	 viewBox="0 0 255 255" style="enable-background:new 0 0 255 255;" xml:space="preserve">
<style type="text/css">
	.st0{fill:#D65858;}
</style>
<g>
	<path class="st0" d="M62.39,138.06v-16.19l48.37-25.13v19.55l-16.6,6.98l-13.94,6.42v0.56l13.94,6.42l16.6,6.98v19.55L62.39,138.06
		z"/>
</g>
<g>
	<path class="st0" d="M124.54,161.64l10.89-15.08c5.44,5.03,11.87,8.38,18.15,8.38c7.82,0,12.84-2.79,12.84-8.38
		c0-6.7-3.49-10.61-22.06-10.61V119.2c14.8,0,19.27-3.91,19.27-10.05c0-5.31-3.21-8.1-9.21-8.1c-5.86,0-10.05,2.51-15.64,7.26
		l-12.01-14.52c8.66-7.26,17.87-11.45,28.76-11.45c19.55,0,32.11,8.93,32.11,24.99c0,8.52-4.75,14.94-14.24,19.13v0.56
		c10.05,3.07,17.03,10.05,17.03,21.22c0,16.75-15.92,25.97-34.34,25.97C141.71,174.2,131.24,169.45,124.54,161.64z"/>
</g>
<g>
	<path d="M115.94,112.36h10.79c6.35,0,11.56,2.21,11.56,9.33c0,6.88-5.21,9.85-11.56,9.85h-4.02v10.78h-6.77V112.36z M126.18,126.16
		c3.56,0,5.48-1.52,5.48-4.47c0-2.96-1.91-3.95-5.48-3.95h-3.46v8.42H126.18z M125.49,129.75l4.68-4.33l9.56,16.9h-7.58
		L125.49,129.75z"/>
</g>
</svg>
